<svg id="Layer_1" data-name="Layer 1" xmlns="http://www.w3.org/2000/svg" width="11.29mm" height="11.29mm" viewBox="0 0 32 32"><defs><style>.cls-1{fill:#9e8555;}</style></defs><title>Artboard 1</title><path class="cls-1" d="M31.7,21a8.61,8.61,0,0,0-1-3.8A6.58,6.58,0,0,0,24.6,14a8.52,8.52,0,0,0-2.3.4c-.1,0-.3.1-.4.1a1,1,0,0,1-.3.1,6.67,6.67,0,0,0-3.7,2.7,3.86,3.86,0,0,1-1-1.9,4.76,4.76,0,0,1,.2-2.9,5.23,5.23,0,0,0,1.6.6,4.19,4.19,0,0,0,2.7.1c.7-.2,2.3-.6,2.4-1.6.1-.7-.8-1.2-1.2-1.5a3.2,3.2,0,0,0-1.9-.5,5.17,5.17,0,0,0-3.6,2.2,1.64,1.64,0,0,1-.4-1.9,2.14,2.14,0,0,1,2.4-1.2c.1,0,.6-.2.5-.2L16.4,5.4c-.1-.1-.6.2-.5.2h0l2.9,2.8a2.66,2.66,0,0,0-1.2.3c-.9.4-1.9,1.5-1.6,2.6a2.29,2.29,0,0,0,.7,1c-.1.1-.1.2-.2.4a4.42,4.42,0,0,0,.3,4.3,5.5,5.5,0,0,0,.7.9A5.36,5.36,0,0,0,17,19c-.7,2-1,4.9,1.5,5.6a3.28,3.28,0,0,0,1.7.1l.6.6a4.75,4.75,0,0,0,3.8,1.2,10,10,0,0,0,5.5-2,4.69,4.69,0,0,0,1.7-3.4C31.7,21.1,31.7,21.1,31.7,21ZM18.9,10.5a3.05,3.05,0,0,1,4.1,1c.8,1.2-1.6,1.9-2.5,1.8a6.18,6.18,0,0,1-3.3-1.1A5.51,5.51,0,0,1,18.9,10.5Zm-.2,13.8c-2.3-.9-1.8-3.9-1-5.7.1-.1.1-.3.2-.4a10.42,10.42,0,0,0,1.8,1,7.49,7.49,0,0,0-.5,1.6,4.83,4.83,0,0,0,.9,3.7A3.4,3.4,0,0,1,18.7,24.3Zm10.7.4a7.7,7.7,0,0,1-6.2,1.5,4,4,0,0,1-2.4-1.6c.6-.1,1.1-.3,1.7-.4a42.87,42.87,0,0,0,8.4-2.6c.1-.1.2-.1.3-.2A4.28,4.28,0,0,1,29.4,24.7Zm1.8-3.4c-.4.2-.9.4-1.3.6a41,41,0,0,1-8.3,2.3c-.3.1-.6.1-.9.2a6,6,0,0,1-.6-5.2,9.31,9.31,0,0,0,3.7.3,4.94,4.94,0,0,0,2.5-.8,1.37,1.37,0,0,0,.1-2.1c-1-.9-2.8-.5-3.9-.1a5.41,5.41,0,0,0-2.7,2.2,5,5,0,0,1-1.7-1.1,6.29,6.29,0,0,1,3.4-2.8,12.57,12.57,0,0,1,3.3-.5,6.49,6.49,0,0,1,5.7,3.8A9.74,9.74,0,0,1,31.2,21.3Zm-11-2.5a5.67,5.67,0,0,1,.8-1.3,4.52,4.52,0,0,1,4.4-1.1,1.35,1.35,0,0,1,.5,2.2c-.7.8-2.3.7-3.2.6A5.48,5.48,0,0,1,20.2,18.8Z"/><path class="cls-1" d="M14.4,7.3l1.9-1.8c.1-.1-.4,0-.5.1h0L12.6,8.7c-.1.1,0,.1.1.1a2.78,2.78,0,0,1,2.3.7,1.79,1.79,0,0,1,.3,2.5c-1.1-1.6-3-2.7-4.9-1.9-.9.4-2.7,1.6-1.5,2.6a4.37,4.37,0,0,0,3.1.9,7.59,7.59,0,0,0,3-1,4.58,4.58,0,0,1-.4,4.9,6.36,6.36,0,0,0-3-2.6,10.76,10.76,0,0,0-3.1-.7,7.21,7.21,0,0,0-6.2,2.2A7,7,0,0,0,.4,20.9v.5a4.3,4.3,0,0,0,1.1,2.8,8.47,8.47,0,0,0,6,2.4,5.38,5.38,0,0,0,4.2-1.9,2.15,2.15,0,0,0,.8,0,3.15,3.15,0,0,0,3.1-2.9,7.18,7.18,0,0,0-1.1-4.2,4,4,0,0,0,1-1.5,3.9,3.9,0,0,0-.3-3.9,1.73,1.73,0,0,0,.6-2.2A2.68,2.68,0,0,0,13,8.5c-.3,0-.3.1,0-.1A4.25,4.25,0,0,0,14.4,7.3Zm-10.5,8a7.33,7.33,0,0,1,5.8-.6,8.26,8.26,0,0,1,2.2.8,5.89,5.89,0,0,1,2.3,2.4c-.2.2-.4.3-.6.5a9.29,9.29,0,0,1-1,.5,4.71,4.71,0,0,0-3.2-2.6,3.88,3.88,0,0,0-3.6.6A1.38,1.38,0,0,0,6,19a5,5,0,0,0,3.4.6,8.08,8.08,0,0,0,2.7-.5,5.56,5.56,0,0,1,.3,4c-.2.5-.4.9-.6,1.3l-1.3-.3c-1.4-.3-2.7-.6-4-1A43.26,43.26,0,0,1,1.1,21,6.79,6.79,0,0,1,3.9,15.3ZM12,19a9.86,9.86,0,0,1-2.4.3,6.15,6.15,0,0,1-3-.5,1.37,1.37,0,0,1-.3-2.2,3.19,3.19,0,0,1,2.7,0,4,4,0,0,1,1.8,1A2.36,2.36,0,0,1,12,19ZM9.1,26.3A7.44,7.44,0,0,1,5.8,26a6.23,6.23,0,0,1-4.5-3.5,2.92,2.92,0,0,1-.2-.9A37.45,37.45,0,0,0,7,23.7a35.83,35.83,0,0,0,4.5.9h0A3.74,3.74,0,0,1,9.1,26.3Zm6.1-3.9a2.39,2.39,0,0,1-2.5,2.1,1.27,1.27,0,0,1-.6-.1,5.17,5.17,0,0,0,1.1-3.2,5.93,5.93,0,0,0-.5-2.3c.2-.1.3-.1.5-.2a4.13,4.13,0,0,0,1.1-.7l.1.1A7.23,7.23,0,0,1,15.2,22.4ZM12,13.3c-.9,0-2.7-.4-3-1.4s1.2-1.7,1.9-1.8a3.13,3.13,0,0,1,1.9.4,4.43,4.43,0,0,1,1.5,1.2,3,3,0,0,1,.5.7A4.47,4.47,0,0,1,12,13.3Z"/><path class="cls-1" d="M31.3,18.7c-.4.2-.5.3-.9.5a20.16,20.16,0,0,1-4.7,2.2,14.56,14.56,0,0,1-6.2.8,1.76,1.76,0,0,1-1.6-1.1A2.08,2.08,0,0,1,18,20a6.93,6.93,0,0,0,4.9.9c1.6-.1,3.9-.4,4.8-1.9a2.33,2.33,0,0,0-.8-3.5,6.91,6.91,0,0,0-8.6,3.1c-.1.2-.3.5-.4.7a3.67,3.67,0,0,1-1.2-2.1,7.58,7.58,0,0,1-.1-2.6c0-.1-.5.1-.5.2a5,5,0,0,0,1.6,4.9c-.4.9-.5,2,.5,2.5,1.5.7,3.5.3,5,0a17.35,17.35,0,0,0,4.4-1.4c1.4-.7,2.5-1.3,3.8-2.1C31.3,18.8,31.3,18.7,31.3,18.7Zm-12.7,0c1-1.7,2.2-3,4.2-3.3a5.33,5.33,0,0,1,4.1.8,1.93,1.93,0,0,1,.6,1.8c-.2,2.6-3.4,2.8-5.5,2.8a7,7,0,0,1-4-1.2C18.3,19.2,18.4,18.9,18.6,18.7Z"/><path class="cls-1" d="M16.1,14.6c0-.1-.6.1-.5.2a5.17,5.17,0,0,1-1.2,4.4,13.44,13.44,0,0,0-1.9-2.6A5.69,5.69,0,0,0,7.7,15c-1.3.1-3.4.6-3.7,2.1a2.82,2.82,0,0,0,.4,2,4.56,4.56,0,0,0,2.7,1.5,10.6,10.6,0,0,0,5,.1,6.63,6.63,0,0,0,1.9-.9,5,5,0,0,1,.2,1.2c-.1,2.1-4.1,1.2-5.3.9a16.35,16.35,0,0,1-4.7-1.6c-1.3-.7-2-1-3.3-1.8v.6a17.73,17.73,0,0,0,5.4,2.5,15.75,15.75,0,0,0,5.7.8c1-.1,2.6-.4,2.7-1.7a3.53,3.53,0,0,0-.3-1.4,5,5,0,0,0,1.3-1.7A4.33,4.33,0,0,0,16.1,14.6Zm-3.7,5.9A10.05,10.05,0,0,1,6,20c-1.5-.7-2.4-3.2-.7-4.2a5.82,5.82,0,0,1,6.5,1.1,8.36,8.36,0,0,1,2,2.8A3.69,3.69,0,0,1,12.4,20.5Z"/></svg>