<svg xmlns="http://www.w3.org/2000/svg" width="14.73" height="31.481" viewBox="0 0 14.73 31.481">
    <g id="Group_12" data-name="Group 12" transform="translate(-924 -2687)">
        <path id="Path_6" data-name="Path 6" d="M662.78,90.5v-5.28h3.2v-.469c0-1.2.01-2.4,0-3.6a7.016,7.016,0,0,1,.676-3.448,5.106,5.106,0,0,1,4.308-2.781c2.141-.173,4.3-.1,6.453-.135.023,0,.046.02.093.042v5.475h-.434c-1.007,0-2.014-.007-3.021,0a1.462,1.462,0,0,0-1.474,1.2c-.04,1.208-.012,2.419-.012,3.687h4.922c0,.132.007.206,0,.279-.174,1.57-.359,3.138-.519,4.709-.032.313-.171.359-.44.357-1.186-.011-2.372-.005-3.557,0-.135,0-.271.012-.457.02v15.715h-6.532V90.539c-.206,0-.369,0-.531,0Z" transform="translate(261.22 2612.205)" fill="#4d4d4d" />
    </g>
</svg>
