<svg id="Group_4" data-name="Group 4" xmlns="http://www.w3.org/2000/svg" width="27.01" height="26.998" viewBox="0 0 27.01 26.998">
    <path id="Path_1" data-name="Path 1" d="M773.087,114c0,.7.006,1.4.006,2.1,0,2.184-.008,4.367,0,6.551a8.137,8.137,0,0,1-1.346,4.642,7.98,7.98,0,0,1-2.993,2.694,8.229,8.229,0,0,1-3.9.915q-5.256-.005-10.512,0a8.053,8.053,0,0,1-6.016-2.49,7.775,7.775,0,0,1-2.015-3.7,8.122,8.122,0,0,1-.22-1.862q-.005-4.171,0-8.343c0-.037,0-.073.007-.11h2.7c0,.1.011.191.011.287q0,3.994,0,7.987a5.785,5.785,0,0,0,.236,1.746,5.246,5.246,0,0,0,1.614,2.478,5.379,5.379,0,0,0,3.636,1.3c3.533-.013,7.066,0,10.6-.007a6.139,6.139,0,0,0,.968-.063,5.22,5.22,0,0,0,3.678-2.4,5.436,5.436,0,0,0,.843-3.066q0-4.3.01-8.607a2.938,2.938,0,0,1,.763-.052Z" transform="translate(-746.085 -103.905)" fill="#4d4d4d" />
    <path id="Path_2" data-name="Path 2" d="M773.075,96.9h-1.933a2.938,2.938,0,0,0-.763.052q-.006-.863-.013-1.726a7.084,7.084,0,0,0-.123-1.471,5.254,5.254,0,0,0-2.31-3.369,5.45,5.45,0,0,0-3.1-.866q-5.245,0-10.49,0a6.521,6.521,0,0,0-.839.041,5.33,5.33,0,0,0-4.376,3.461,5.939,5.939,0,0,0-.33,2.062q0,1.106-.01,2.212h-2.7c0-1.062-.052-2.124.037-3.184A7.812,7.812,0,0,1,747.5,90.3a8.048,8.048,0,0,1,6.649-3.485q5.431,0,10.863,0a7.61,7.61,0,0,1,3.1.621A8.145,8.145,0,0,1,770.65,89.1a8.032,8.032,0,0,1,2.43,5.833C773.083,95.591,773.077,96.247,773.075,96.9Z" transform="translate(-746.073 -86.81)" fill="#4d4d4d" />
    <path id="Path_3" data-name="Path 3" d="M776.752,114.122a5.982,5.982,0,0,1,.767,2.3,9.358,9.358,0,0,1,.09,1.46,6.75,6.75,0,0,1-1.24,3.585,6.882,6.882,0,0,1-3.515,2.631,6.765,6.765,0,0,1-3.314.267,6.85,6.85,0,0,1-4.636-2.926,6.624,6.624,0,0,1-1.175-3.062,6.9,6.9,0,0,1,.589-3.833.542.542,0,0,1,.048-.073.622.622,0,0,0,.372.091c.641-.006,1.283,0,1.924,0a4.14,4.14,0,0,0,.9-.036.4.4,0,0,1-.035.056,4.2,4.2,0,0,0-.97,4.13,4,4,0,0,0,1.262,1.971,4.261,4.261,0,0,0,6.15-.538,4.155,4.155,0,0,0,.525-4.485,4.413,4.413,0,0,0-1.1-1.449,2.35,2.35,0,0,1,.633-.044c.793,0,1.586,0,2.379,0A1.167,1.167,0,0,0,776.752,114.122Z" transform="translate(-757.139 -103.983)" fill="#4d4d4d" />
    <path id="Path_4" data-name="Path 4" d="M768.739,108.382a4.142,4.142,0,0,1-.9.036c-.641,0-1.283,0-1.924,0a.622.622,0,0,1-.372-.091,6.967,6.967,0,0,1,10.08-2.838,6.628,6.628,0,0,1,2.306,2.485,1.168,1.168,0,0,1-.346.045c-.793,0-1.586,0-2.379,0a2.35,2.35,0,0,0-.633.044c-.049-.033-.1-.064-.145-.1a4.245,4.245,0,0,0-3.564-.778A4.307,4.307,0,0,0,768.739,108.382Z" transform="translate(-758.315 -97.84)" fill="#4d4d4d" />
    <path id="Path_5" data-name="Path 5" d="M798.456,103.357a1.667,1.667,0,1,1,.041-3.333,1.667,1.667,0,0,1-.041,3.333Z" transform="translate(-777.966 -95.118)" fill="#4d4d4d" />
</svg>
