<svg id="Layer_1" data-name="Layer 1" xmlns="http://www.w3.org/2000/svg" width="106mm" height="79.47mm" viewBox="0 0 300.46 225.26"><defs><style>.cls-1,.cls-2{fill:#9e8555;}.cls-1{fill-rule:evenodd;}</style></defs><title>logo1_1</title><path id="FROLOV" class="cls-1" d="M12.71,156.6V141h7.77l2.69,6.72h1.26V133.15H23.17l-2.69,6.72H12.71V122.62H26.3l3.59,10h1.2v-11.2H3.45v1l4.18.67V156.6l-4.18.68v1H17v-1Zm71,.08A1.75,1.75,0,0,1,82,155.59a14.12,14.12,0,0,1-.85-3.4l-.53-4q-1.2-6.87-8.44-7.84v-.3q9.57-1.28,9.56-9.19,0-4.77-3.36-7.13t-10.83-2.35H54.71v1l4.19.67V156.6l-4.19.67v1H68.23v-1L64,156.6V140.39h3.58q6.42,0,7.4,6.65l.9,6.2a6.89,6.89,0,0,0,1.68,4.22,6.1,6.1,0,0,0,4.3,1.23,7.15,7.15,0,0,0,5.45-2.83l-.75-.83A4.27,4.27,0,0,1,83.73,156.68Zm-7.5-26.45v.9c0,2.69-.63,4.72-1.87,6.09a6.72,6.72,0,0,1-5.23,2.06H64V122.62h3.58q8.67,0,8.67,7.61Zm36.89,23.53a16,16,0,0,0,12.51,5.46,15.78,15.78,0,0,0,12.43-5.46q4.86-5.44,4.86-14T138,125.87a16,16,0,0,0-12.44-5.42,16.36,16.36,0,0,0-12.44,5.42q-4.89,5.34-4.89,13.89t4.86,14Zm20.83.38a10.23,10.23,0,0,1-8.36,4,10.47,10.47,0,0,1-8.44-4q-3.29-4-3.29-10.76v-7.1q0-6.65,3.29-10.68a10.37,10.37,0,0,1,8.44-4,10.17,10.17,0,0,1,8.36,4q3.21,4,3.22,10.68v7.1q0,6.8-3.22,10.76Zm31.73-31.75,4.18.67V156.6l-4.18.67v1h28V147h-1.27l-3.74,10.09H174.94V123.06l4.26-.67v-1H165.68v1Zm51.24,31.37a16,16,0,0,0,12.51,5.46,15.78,15.78,0,0,0,12.44-5.46q4.84-5.44,4.85-14t-4.89-13.93a16,16,0,0,0-12.43-5.42A16.36,16.36,0,0,0,217,125.87q-4.89,5.34-4.89,13.89t4.85,14Zm20.84.38a10.25,10.25,0,0,1-8.36,4,10.49,10.49,0,0,1-8.45-4q-3.28-4-3.28-10.76v-7.1q0-6.65,3.28-10.68a10.42,10.42,0,0,1,8.45-4,10.18,10.18,0,0,1,8.36,4q3.21,4,3.21,10.68v7.1q0,6.8-3.21,10.76Zm42,5.08L293,124.41l3.28-2v-1h-9.86v1l5.3,2.09-9.93,26.07L271.58,123l4.41-.6v-1H262.47v1l3.66.67,13.22,36.15h.38Z"/><path id="SAVOVA" class="cls-1" d="M26.29,187.5a19.21,19.21,0,0,0-8-1.51,10,10,0,0,0-7.6,3,11.09,11.09,0,0,0-2.91,8,9.43,9.43,0,0,0,2.08,6.09,11.17,11.17,0,0,0,6.09,3.67l7.71,2a12.76,12.76,0,0,1,5.64,2.61,6,6,0,0,1,1.7,4.5A7.34,7.34,0,0,1,28.29,222a11.37,11.37,0,0,1-7.22,2.12,14.24,14.24,0,0,1-8.4-2.73l-4-8.62h-1v12h1l3.94-2a16.76,16.76,0,0,0,9,2.57,11.42,11.42,0,0,0,8.1-3,10.49,10.49,0,0,0,3.21-8.09c0-3.4-.65-5.94-2-7.6a10.6,10.6,0,0,0-6.05-3.48l-8.4-2.27a12,12,0,0,1-4.85-2.27A5.49,5.49,0,0,1,10,194.16a6.38,6.38,0,0,1,2.35-5,9.47,9.47,0,0,1,6.42-2,17.38,17.38,0,0,1,7.57,1.67l3.33,6.8h1V186h-1Zm31.9,32.88L62,210.63H74.3l4,11-3.78.6v1H88.21v-1l-4.31-.68L71.12,185h-.68L56.9,220.39l-4.53,1.89v1h10v-1ZM74,209.64H62.35l6.05-16.41Zm48.53,15.6L135.91,190l3.33-2.05v-1h-10v1l5.37,2.12-10.06,26.4-10.28-27.91,4.46-.6v-1H105.05v1l3.71.68,13.38,36.61h.38Zm42.42-6.52a16.19,16.19,0,0,0,12.67,5.52,15.94,15.94,0,0,0,12.6-5.52q4.9-5.52,4.91-14.14t-5-14.11a16.22,16.22,0,0,0-12.6-5.48A16.58,16.58,0,0,0,165,190.47Q160,195.89,160,204.54T165,218.72Zm21.1.38a10.39,10.39,0,0,1-8.47,4,10.64,10.64,0,0,1-8.55-4q-3.33-4-3.32-10.89V201q0-6.72,3.32-10.81a10.55,10.55,0,0,1,8.55-4.09,10.29,10.29,0,0,1,8.47,4.09q3.26,4.08,3.25,10.81v7.19q0,6.87-3.24,10.89Zm44.42,6.14L243.85,190l3.33-2.05v-1h-10v1l5.37,2.12-10.06,26.4-10.28-27.91,4.46-.6v-1H213v1l3.7.68,13.4,36.6h.36ZM267,222.39l3.78-9.76H283.1l4,11-3.78.6v1H297v-1l-4.31-.68L279.92,187h-.68l-13.54,35.4-4.54,1.89v1h10v-1Zm15.81-10.74H271.15l6.05-16.42Z"/><path class="cls-2" d="M300,56c-1.67-7.08-7.33-10.93-8.53-11.74-7.72-5.25-17.13-3.59-22.58-2.54-13,2.49-24.95,8.26-36.71,14.19-4.28,2.16-6.82,2.82-9.75-2.45-4.82-8.68-13.43-12.73-23-14.28-14.52-2.35-27.91-.29-38.48,11.2-.75.82-1.49,2.07-2.84,1.61s-1-1.93-1.27-3a17.21,17.21,0,0,1-.17-5.95c1.08-7.66,1-7.68,8.36-5,5.67,2.11,10.85.89,15.58-2.52,2.62-1.9,3.89-4.59,3-7.88s-3.35-4.37-6.38-4.72a20.87,20.87,0,0,0-15.56,4c-1.53,1.16-3,2.33-4.69.22s-2.54-4-.38-6.21c2.62-2.69,5.51-4.86,9.56-4.56,1,.07,2.16.48,2.73-.54.76-1.35-.45-2.19-1.3-2.9-2.42-2-4.92-4-7.42-5.91S155.27,3,154,0h-7.52c-1.28,3-3.65,5.11-6.18,7.06s-5,3.88-7.42,5.91c-.84.71-2.05,1.55-1.3,2.9.58,1,1.76.61,2.74.54,4.05-.3,6.93,1.87,9.56,4.56,2.15,2.21,1.17,4.24-.38,6.21s-3.16.94-4.69-.22a20.87,20.87,0,0,0-15.56-4c-3,.35-5.5,1.56-6.38,4.72s.35,6,3,7.88c4.72,3.41,9.91,4.63,15.57,2.52,7.32-2.73,7.29-2.71,8.37,5A17,17,0,0,1,143.6,49c-.22,1.09.11,2.56-1.26,3s-2.09-.79-2.84-1.61c-10.58-11.49-24-13.55-38.48-11.2-9.55,1.55-18.16,5.6-23,14.28-2.93,5.27-5.47,4.61-9.75,2.45C56.53,50,44.54,44.21,31.58,41.72,26.12,40.67,16.72,39,9,44.26,7.8,45.07,2.14,48.92.47,56a17,17,0,0,0,0,8,18.24,18.24,0,0,0,6,9.1c3.4,3,3.86,3.62,8.27,5.57,2.81,1.23,3.47,3.92,4.52,5.67,3.79,6.34,12.4,10.13,18.21,9.08.39-.07,4.33-.81,4.47-2.3a1.67,1.67,0,0,0-.66-1.22c-1.08-.86-3.14.08-4.53.1-4.31.08-8.32-.51-11.66-3.49-1-.88-2.22-1.89-1.61-3.35s2.33-1.09,3.55-.84a33.74,33.74,0,0,0,16.31-.68c4.39-1.26,8-3.57,9.77-7.86,1.44-3.5,3.35-3.4,6.2-1.85C64.94,75,64,73.38,67.9,75.87c5.19,3.29,8.39,7,12.4,10.68C86.24,92,91.61,96.94,99.47,99a33.4,33.4,0,0,0,16,0c6.81-1.55,6.86-3.75,20.24-9.07,3.66-1.45,4.91-1.81,6.59-3.32,3.61-3.25,5.29-8.39,5.2-14.72a18.55,18.55,0,0,0-.56-4.94c-1.71-5.83-2.15-11.46,0-17.43,1.64-4.49.29-9.28-1.4-13.65-1.26-3.28-.48-5.81,1.7-8.21a1.42,1.42,0,0,1,1.95-.4h2.06a1.42,1.42,0,0,1,2,.4c2.17,2.4,3,4.93,1.7,8.21-1.69,4.37-3,9.16-1.41,13.65,2.17,6,1.73,11.6,0,17.43a18.55,18.55,0,0,0-.56,4.94c-.09,6.33,1.59,11.47,5.2,14.72,1.68,1.51,2.93,1.87,6.59,3.32C178.13,95.25,178.18,97.45,185,99a33.4,33.4,0,0,0,16,0c7.86-2.06,13.23-7,19.17-12.45,4-3.68,7.2-7.39,12.4-10.68,3.94-2.49,3-.86,8.62-3.94,2.86-1.55,4.77-1.65,6.21,1.85,1.77,4.29,5.38,6.6,9.77,7.86a33.74,33.74,0,0,0,16.31.68c1.22-.25,2.87-.75,3.55.84s-.63,2.47-1.61,3.35c-3.34,3-7.36,3.57-11.66,3.49-2.94,0-4.5-.31-4.53-.1-.08.38,4.85,2.87,10.3,2a18.39,18.39,0,0,0,11.72-7.57c1.47-2.14,1.81-4.48,4.52-5.67,4.41-2,4.87-2.58,8.26-5.57a18.18,18.18,0,0,0,6-9.1A17.18,17.18,0,0,0,300,56ZM163.87,29.17A16.63,16.63,0,0,1,168,27c.89-.27,9-2.7,11.34,0a4.75,4.75,0,0,1,.9,1.76c.78,3.6-2.41,5.1-5.17,6.25a12.45,12.45,0,0,1-10.56-.52C161.61,33.08,160.68,31.41,163.87,29.17ZM135.93,34.5a12.45,12.45,0,0,1-10.56.52c-2.76-1.15-6-2.65-5.18-6.25A4.87,4.87,0,0,1,121.1,27c2.31-2.72,10.45-.29,11.34,0a16.45,16.45,0,0,1,4.14,2.18C139.78,31.41,138.85,33.08,135.93,34.5ZM47.24,76.29c-3.52,3.64-8.79,3.7-14,3.75A23.1,23.1,0,0,1,26,79c-2.56-.8-4.42-1.38-5.25-3.1s-.48-3.65.88-6.08a10.51,10.51,0,0,1,8-5.42A34.16,34.16,0,0,1,47.7,67.08a4.28,4.28,0,0,1,2.11,1.75C51.06,71,49.07,74.4,47.24,76.29Zm26.71-3c-1.1,1.18-2.18.26-3.15-.22C65.86,70.69,61,68.18,56,65.79c-2.13-1-3-3-4.05-4.89C44.74,48.14,21.31,45.33,11.79,56c-5,5.68-4,12.67,3.14,16.45-5.41-11.92-.88-19,11.68-19.52,6.59-.27,13.06-.07,18.5,4.38,1.38,1.14,2.86,2.3,3.35,4.89-3.69-.65-7.12-1.51-10.6-1.82-7-.65-13.69.28-18.34,6.5a11.84,11.84,0,0,0-1.8,3.54c-1.79,5.79-2.38,6-7,2.21-6.15-5.09-8.17-12.3-5.4-19.24,2.42-6.08,9-9.74,16.87-9,18,1.69,33.73,9.85,49.65,17.44C74,62.89,75.42,71.74,74,73.32Zm42.52,21.6a27.51,27.51,0,0,1-18.42,0c-6.27-2.28-12-6.59-14.92-12.21,1.78.51,3.46,1,5.09,1.41,2.56.72,4.39,1.37,4.7,1.47,7.8,2.56,28.75,6.17,28.75,6.17C121.81,92.93,118.42,94.19,116.47,94.92Zm10.11-9.83c-.36,2.84-2.65,3.55-4.66,3.09C107.59,86.81,94.66,82.55,81.83,78c-3.53-1.25-5.7-7.8-4-11.1,1.32-2.65,3.18-1,4.62-.29,4.68,2.37,19.44,9,21.31,9.66,8.69,3.18,21.58,5,22.57,7.27A3.86,3.86,0,0,1,126.58,85.09ZM110.43,46c-7.11-1.8-14.07.56-15.68,5.18-2,5.62,1.46,11.26,9,14.63a37,37,0,0,0,15,3.4c2.31-.3,4.63-.48,6.91-.94,2.11-.42,3.15-.5,4,.14,1.1.84,1.13,2.49,1.16,4.26s.07,3.72-1.24,5a4.91,4.91,0,0,1-3.43,1.18,19.33,19.33,0,0,1-5.37-1C107,73.76,94.09,67.57,81.09,61.6c-3.2-1.48-2.3-3.63-1-5.73,4.55-7.41,11.4-11.48,19.74-13.18,14.16-2.88,27.23-1.28,37.56,10.05,3.74,4.11,2.9,6.39-2.19,8.4-3.13,1.24-4.31-.84-5.56-2.73C125,51.42,118.22,47.92,110.43,46Zm17.22,17c-.41,1-1.83,1.24-3.77,1.6a20.87,20.87,0,0,1-5,.34c-6.51-.54-11.24-.93-16.42-3.82-2.86-1.6-4.07-3-4.59-4.58a6.48,6.48,0,0,1-.15-3.31c.81-4.17,4.56-4.88,7.81-4.71,8.33.45,15.47,3.75,20.54,10.64C127.44,60.9,128,62.09,127.65,62.91Zm16,15.1c-1.18.83-2.14-.17-5.63.59a5.57,5.57,0,0,1-2.17,0,3.85,3.85,0,0,1-1.9-1c-.86-.93-.56-2.18-.39-4.51.34-4.64-.49-4.72.25-6.22.86-1.72,2.43-2.52,4.55-3.61,1.46-.74,2.6-1.31,3.52-.84s1.23,2,1.36,3.09C144.64,76.62,144.44,77.48,143.67,78Zm7.59-59.25H149.2a2.87,2.87,0,0,1-2,.26c-2.56-1.54-4.93-3.39-7.36-5.14a1.35,1.35,0,0,1-.52-.8c-.2-1.67,1.11-2.47,2.22-3,2.81-1.33,4.08-6.06,7.66-4.91h2.06c3.57-1.15,4.84,3.58,7.66,4.91,1.11.53,2.42,1.33,2.21,3a1.29,1.29,0,0,1-.51.8c-2.43,1.75-4.8,3.6-7.36,5.14A2.87,2.87,0,0,1,151.26,18.76Zm15.23,58.88a3.86,3.86,0,0,1-1.9,1c-.91.28-4.55,1.43-6.07-.12-.73-.75-.34-1.48-.47-4.19-.21-4.29-1.29-5.36-.85-8.78.2-1.66.6-2.7,1.36-3.09.92-.47,2.06.1,3.52.84,2.12,1.09,3.68,1.89,4.54,3.61.75,1.5-.08,1.58.26,6.22C167.05,75.46,167.35,76.71,166.49,77.64Zm3.12-5c0-1.77.06-3.42,1.16-4.26.85-.64,1.89-.56,4-.14,2.27.46,4.6.64,6.9.94a37,37,0,0,0,15-3.4c7.55-3.37,11-9,9-14.63-1.62-4.62-8.57-7-15.68-5.18-7.79,2-14.62,5.47-19.21,12.46-1.24,1.89-2.42,4-5.55,2.73-5.09-2-5.93-4.29-2.19-8.4,10.33-11.33,23.39-12.93,37.56-10.05,8.34,1.7,15.19,5.77,19.74,13.18,1.29,2.1,2.19,4.25-1,5.73-13,6-25.9,12.16-39.71,16.13a19.33,19.33,0,0,1-5.37,1,5,5,0,0,1-3.44-1.18C169.54,76.34,169.57,74.48,169.61,72.62Zm4.76-13.55c5.06-6.89,12.21-10.19,20.54-10.64,3.25-.17,7,.54,7.81,4.71a6.48,6.48,0,0,1-.15,3.31c-.52,1.58-1.73,3-4.6,4.58-5.17,2.89-9.9,3.28-16.41,3.82a20.87,20.87,0,0,1-5-.34c-1.94-.36-3.36-.62-3.77-1.6C172.47,62.09,173,60.9,174.37,59.07ZM184,94.92c-1.11-.52-2.93-.78-2.57-2.47.27-1.26,1.88-1.13,3-1.27a103.55,103.55,0,0,0,23.12-5.63c3.05-1.1,6.23-1.85,9.78-2.88C211.41,93.92,194.56,99.89,184,94.92ZM218.63,78c-12.83,4.56-25.76,8.82-40.09,10.19-2,.46-4.3-.25-4.66-3.09s2.53-2.13,4-2.47a116,116,0,0,0,18.84-6.36c7.19-3,14.34-6.14,21.31-9.66,1.43-.72,3.29-2.36,4.62.29C224.33,70.19,222.16,76.74,218.63,78Zm61-2.09c-.83,1.72-2.69,2.3-5.25,3.1a23.1,23.1,0,0,1-7.21,1c-5.2-.05-10.47-.11-14-3.75-1.83-1.89-3.82-5.33-2.57-7.46a4.19,4.19,0,0,1,2.11-1.75,34.16,34.16,0,0,1,18.05-2.68,10.51,10.51,0,0,1,8,5.42C280.15,72.25,280.43,74.32,279.67,75.9Zm10-3.23c-4.59,3.8-5.18,3.58-7-2.21a12.08,12.08,0,0,0-1.8-3.54c-4.65-6.22-11.29-7.15-18.34-6.5-3.48.31-6.91,1.17-10.6,1.82.49-2.59,2-3.75,3.35-4.89,5.44-4.45,11.91-4.65,18.49-4.38,12.56.51,17.1,7.6,11.69,19.52,7.1-3.78,8.18-10.77,3.14-16.45-9.53-10.71-33-7.9-40.18,4.86-1.07,1.89-1.92,3.85-4.05,4.89-4.95,2.39-9.84,4.9-14.78,7.31-1,.48-2,1.4-3.15.22-1.47-1.58-.06-10.43,2.08-11.45,15.92-7.59,31.67-15.75,49.65-17.44,7.84-.74,14.45,2.92,16.87,9C297.88,60.37,295.85,67.58,289.71,72.67Z"/></svg>
