<svg id="Layer_1" data-name="Layer 1" xmlns="http://www.w3.org/2000/svg" width="152.17mm" height="115.6mm" viewBox="0 0 431.35 327.69">
    <defs>
        <style>
            .cls-1,
            .cls-2 {
                fill: #9e8555;
            }

            .cls-1 {
                fill-rule: evenodd;
            }

        </style>
    </defs>
    <title>logo</title>
    <g id="Logo">
        <path id="FROLOV" class="cls-1" d="M15.13,228.57v-22.5h11.2l3.9,9.7H32v-21h-1.8l-3.9,9.7H15.13v-24.9h19.6l5.2,14.4h1.7v-16.2H1.73v1.4l6,1v48.4l-6,1V231h19.5v-1.4Zm102.4.1a2.5,2.5,0,0,1-2.5-1.6,20.65,20.65,0,0,1-1.2-4.9l-.8-5.7c-1.1-6.6-5.2-10.4-12.2-11.3v-.4c9.2-1.2,13.8-5.6,13.8-13.3,0-4.6-1.6-8-4.9-10.3s-8.4-3.4-15.6-3.4H75.63v1.4l6,1v48.4l-6,1V231h19.5v-1.4l-6.2-1v-23.4h5.2c6.2,0,9.7,3.2,10.7,9.6l1.3,9a9.92,9.92,0,0,0,2.4,6.1c1.3,1.2,3.3,1.8,6.2,1.8a10.35,10.35,0,0,0,7.9-4.1l-1.1-1.2a5.37,5.37,0,0,1-4,2.3Zm-10.8-38.1v1.3c0,3.9-.9,6.8-2.7,8.8a9.4,9.4,0,0,1-7.5,3h-7.4v-24h5.2c8.2,0,12.4,3.6,12.4,10.9Zm53.2,33.9a22.9,22.9,0,0,0,18,7.9,22.56,22.56,0,0,0,17.9-7.9c4.7-5.2,7-12,7-20.1s-2.3-14.9-7-20.1a23.08,23.08,0,0,0-17.9-7.8,23.42,23.42,0,0,0-17.9,7.8c-4.7,5.1-7.1,11.8-7.1,20s2.3,14.9,7,20.2Zm30.1.6a15,15,0,0,1-12.1,5.7,15.3,15.3,0,0,1-12.2-5.7c-3.2-3.8-4.7-9-4.7-15.5v-10.2c0-6.4,1.6-11.5,4.7-15.4a14.84,14.84,0,0,1,12.2-5.8A15.06,15.06,0,0,1,190,184c3.1,3.9,4.7,9,4.7,15.4v10.2C194.63,216.07,193.13,221.27,190,225.07Zm45.7-45.8,6,1v48.4l-6,1v1.4h40.4v-16.2h-1.8l-5.4,14.6h-19.8v-49.1l6.1-1V178h-19.5v1.3Zm73.9,45.2a24.46,24.46,0,0,0,36,0c4.7-5.2,7-12,7-20.1s-2.3-14.9-7-20.1a22.82,22.82,0,0,0-18-7.8,23.77,23.77,0,0,0-17.9,7.8c-4.7,5.1-7.1,11.8-7.1,20S305,219.17,309.63,224.47Zm30.1.6a14.92,14.92,0,0,1-12,5.7,15.3,15.3,0,0,1-12.2-5.7c-3.2-3.8-4.7-9-4.8-15.5v-10.2c0-6.4,1.6-11.5,4.8-15.4a14.84,14.84,0,0,1,12.2-5.8,15.06,15.06,0,0,1,12.1,5.8c3.1,3.9,4.6,9,4.6,15.4v10.2c0,6.5-1.6,11.7-4.7,15.5Zm60.5,7.3,19.1-50.2,4.7-2.9v-1.4h-14.2v1.4l7.6,3-14.3,37.6-14.7-39.8,6.4-.9v-1.4h-19.5v1.4l5.3,1,19.1,52.1Z" />
        <path id="SAVOVA" class="cls-1" d="M34.63,273.17A28.85,28.85,0,0,0,23,271a14.33,14.33,0,0,0-11,4.4A15.89,15.89,0,0,0,7.83,287a13.43,13.43,0,0,0,3,8.8,16.44,16.44,0,0,0,8.8,5.3l11.1,2.8a17.35,17.35,0,0,1,8.1,3.8,8.73,8.73,0,0,1,2.5,6.5,10.31,10.31,0,0,1-3.9,8.8,16.17,16.17,0,0,1-10.4,3.1,21,21,0,0,1-12.1-3.9l-5.7-12.4H7.83V327h1.4l5.7-3a24.83,24.83,0,0,0,13,3.7,16.36,16.36,0,0,0,11.7-4.3,14.68,14.68,0,0,0,4.6-11.7c0-4.9-.9-8.6-2.8-11a15.13,15.13,0,0,0-8.7-5l-12.1-3.3a18.77,18.77,0,0,1-7-3.3,7.86,7.86,0,0,1-2.4-6.3,9.2,9.2,0,0,1,3.4-7.2,13.53,13.53,0,0,1,9.3-3,25.5,25.5,0,0,1,10.9,2.4l4.8,9.8H41V271h-1.4Zm46,47.4,5.5-14.1h17.8l5.8,15.9-5.5.9v1.4H124v-1.4l-6.2-1-18.4-52.8h-1l-19.5,51.1-6.5,2.7v1.4h14.4v-1.4Zm22.8-15.5H86.63l8.7-23.7Zm70,22.5,19.3-50.8,4.8-3v-1.4h-14.4v1.4l7.8,3-14.5,38.1-14.8-40.3,6.4-.9v-1.4h-19.8v1.4l5.4,1,19.3,52.8Zm61.2-9.4a24.82,24.82,0,0,0,36.5,0c4.7-5.3,7.1-12.1,7.1-20.4s-2.4-15.1-7.1-20.4a23.31,23.31,0,0,0-18.2-7.9,24.3,24.3,0,0,0-18.2,7.9c-4.7,5.2-7.1,12-7.1,20.3s2.4,15.2,7,20.5Zm30.5.6a15.73,15.73,0,0,1-24.4,0c-3.2-3.9-4.8-9.1-4.8-15.7v-10.4q0-9.75,4.8-15.6a15.11,15.11,0,0,1,12.3-5.9,14.92,14.92,0,0,1,12.2,5.9c3.1,3.9,4.7,9.1,4.7,15.6v10.4c0,6.6-1.6,11.8-4.8,15.7Zm64.1,8.8,19.3-50.8,4.8-3v-1.4h-14.4v1.4l7.7,3-14.5,38.1-14.8-40.3,6.4-.9v-1.4h-19.8v1.4l5.4,1,19.3,52.8h.6Zm52.6-4.1,5.5-14.1h17.8l5.8,15.9-5.5.9v1.4h19.8v-1.4l-6.2-1-18.4-52.8h-1l-19.5,51.1-6.5,2.8v1.4H388v-1.4Zm22.8-15.5h-16.8l8.8-23.7Z" />
    </g>
    <path class="cls-2" d="M214.43,1.57l22,21L240,21a25.09,25.09,0,0,0-13.8,1.9c-6.5,2.9-13.4,10.4-10.9,18.1,2.3,7.2,11.5,10.8,18,12.7s12.2,2.4,18.8.7c5.1-1.3,15.5-4.4,16.4-10.8.7-4.7-5.2-8.5-8.5-10.6a20.3,20.3,0,0,0-12.9-3.2c-11.8,1.2-22.9,9.9-28,20.4-4.7,9.6-3.2,20.2,2,29.2,4.5,7.8,12.2,12.1,20.7,14.7a70.39,70.39,0,0,0,27,2.8c5.9-.6,12.8-1.9,17.4-5.8,4.4-3.6,5.3-10.6.9-14.6-6.7-6.2-19.3-3.7-26.9-.7-13.3,5.2-21,15-23.1,29.2a37.75,37.75,0,0,0,10.9,31.7c7,6.9,16.5,9,26.1,8.3,13.1-.9,27.3-5.6,37.5-14,15.7-12.9,14.2-33.2,4.7-49.6-8.9-15.3-24.8-22.7-42.1-21.9a66.84,66.84,0,0,0-16,2.6c-1.1.3-2.3.7-3.4,1.1,1.6-.5-.8.1-1.6.3-14.7,4-25.8,15.7-31,29.7-5,13.6-7,33.6,10.3,38.5,9,2.6,18.9-.9,27.6-2.7,19.5-4,39.5-9.5,57.5-18.1,10.8-5.2,21.5-10.7,32.4-15.8,11.5-5.4,31.1-12.8,42.4-3.8,12.2,9.7,9.4,30.4-.9,40.5-8.5,8.4-20.4,4.7-29.5-.8-.8-.5-3.8,1.5-3.5,1.7,12.2,7.2,27,8.3,37.2-2.8,6.9-7.6,10.1-18.9,7.1-28.8-8-27.1-42.4-12.2-59.9-3.7-10.7,5.2-21.2,11.1-32.3,15.6a303.7,303.7,0,0,1-57,16.1c-7.5,1.4-12.7,3.1-19.9.3-16-6.3-12.5-26.8-7.2-39.4,5-11.9,13.9-21.7,26.5-25.2,7.5-2.1,14.8-3.7,22.7-3.4,17.4.6,31.7,10.3,39.1,26s7.5,33.7-7,45.1c-11.1,8.7-28.9,13.4-42.8,10.2-20.7-4.9-28.8-29.9-21.7-48.2,1.6-4.1,3.5-8.1,6.5-10.9,7.6-7.2,20.3-11.6,30.5-7.3,5.9,2.5,8.2,10.1,3.6,15-4.8,5.2-15.8,4.5-22.2,4.2-17.7-1-35.5-7.8-40.7-26.2-3.7-13.1,3.3-28.1,14.7-34.4,9.4-5.2,22.1-3.1,28.1,6.6,5.3,8.5-11,12.8-16.9,12.7-10.7-.2-33.1-7.8-27.4-22.1,2.9-7.1,9.6-10.5,17-9.2.5.1,4-1.3,3.6-1.6l-22-21c-.8-1-3.8,1.1-3.7,1.3Z" />
    <path class="cls-2" d="M214.53,1.27l-22,21c-.5.4.2.4.5.4a18.78,18.78,0,0,1,15.9,4.6c6.3,6.1,6.6,14.8-.6,20.1a36.48,36.48,0,0,1-20.2,6.5c-5.9-.1-18.4-3-20.3-9.6-1.8-6.1,8.5-11.9,13.2-12.6s9.1.9,13.2,2.8a31.5,31.5,0,0,1,10.2,7.9c12.1,13.6,10.5,36.2-5.7,46.2-7.9,4.9-17.9,6.6-27.1,6.8-6.7.2-14.5-.2-20.4-3.7-5.1-3-7.4-11.3-1.8-15.3,4.8-3.4,13.4-1.9,18.6-.3a37.12,37.12,0,0,1,12.4,6.6c10.6,8.5,14.3,25.8,10,38.2-3.6,10.3-11,20.1-22.3,22-7.5,1.2-15.4,0-22.7-2-12.8-3.5-26.3-10.9-31.1-24-6.2-16.9,3.8-39.5,18.1-49.3,11.4-7.8,26.6-7.7,39.5-4.4a58.46,58.46,0,0,1,15.3,5.6,44.36,44.36,0,0,1,16.9,18.5c4.3,8.6,7.7,19.6,5.9,29.2-1.6,8.6-8.9,14.8-17.1,14.3-5.2-.4-10.6-1.8-15.7-2.8-9.3-1.9-18.5-3.9-27.6-6.5a262.32,262.32,0,0,1-41-16.1c-8.4-4.1-16.8-8.5-25.4-12.3-11.4-5.1-25.9-10-38.4-6.4-25.1,7.2-19.1,49.3,6,51.7,8,.8,15.8-2.7,22.4-6.6,2.2-1.3-1.4-.4-2.2.1-10,5.9-21.6,7.1-30.2-1.6a33.7,33.7,0,0,1-6-9c-4.8-10.4-3.7-30.2,9.8-33.3,9-2.1,19.3,1.1,27.7,4.1,10.7,3.8,20.8,9.5,31,14.4a253.41,253.41,0,0,0,50,18.9c10.3,2.6,20.7,4.7,31.1,6.5a26.46,26.46,0,0,0,7.9.7c11.3-1.1,20.7-8.3,21.5-20.2,1.3-19-10.6-40.4-28.5-47.7a75.44,75.44,0,0,0-21.1-4.9c-15.5-1.4-31.7,3.1-42.3,14.9-12.8,14.1-19.6,38.6-5.4,54,10,11,26.9,16.4,41.5,16.6,20.3.3,37.7-15.7,37.5-36.5-.1-16.6-9.5-30.3-25.7-34.6-7.7-2-18.7-2.2-24.9,3.9-4.2,4.2-3.3,11.3,1.4,14.7,6.2,4.5,15.8,4.7,23.1,4.4a69.1,69.1,0,0,0,26.1-6c8.4-3.8,14.4-9.4,18-18a29.32,29.32,0,0,0-2.5-28.1c-7.3-11-21-18.9-34.1-13.3-6.1,2.6-18.6,10.7-10.4,17.6,5.3,4.5,14.1,6.9,21,6.1,11.1-1.3,35.4-8.9,28.5-24.4a18.34,18.34,0,0,0-18.9-10.4c-2.1.2-2,.7-.3-.5,2.8-2,5.2-5,7.7-7.3L217.63.37c.8-.6-2.5.2-3.1.9Z" />
    <path class="cls-2" d="M375.33,104.67c13.3,2.2,39.2-.9,36.9-19.9-1.2-10-14-10.7-21.8-10.4-7.4.4-15.5,1.3-21.9,5.1-8.3,5-16.5,13.8-15.6,24.2,1.2,13.2,13.8,21.2,26.1,21.5,11.1.2,22.5-3.8,32.1-9.2,7.3-4.1,12.1-8.6,15.9-16,5.3-10.4,7-22-2.4-30.8-9.9-9.3-23.8-10.9-36.6-9-17.1,2.5-33.2,10.1-47.8,19-8.6,5.3-17.3,10.4-26.1,15.4-10.3,5.9-20.6,11.9-32,15.4-13.2,4-28.8,7.8-42.6,5.4-4.7-.8-9.9-2.7-11.1-7.8-1.4-5.7,2-11.9,4.9-16.6,6.9-11.4,15.3-20.5,29-22.9,8.9-1.5,21.1-.5,28.4,5.5,3.7,3,4.6,7.6,4.3,12.2-1.4,17.6-23.5,19-37.5,19.1-15.9.1-33.6-7.2-37.8-24.1a44.47,44.47,0,0,1-.6-17.8c.1-.5-3.5.4-3.6,1.3-2,13.3,1.1,26.3,12.2,34.8,9.9,7.6,22.8,8.2,34.8,7.3,10.9-.9,26.6-2.9,33.3-12.9,5.6-8.4,4-19.6-5.3-24-13.1-6.3-29.3-4.2-41.7,2.7-7.5,4.1-12.8,10.7-17.4,17.8s-11.6,20.2-.9,25.5c10,4.9,24,2.1,34.4.1a124.81,124.81,0,0,0,30.4-9.5c10.7-5.2,21-11.2,31.3-17.2,12.7-7.4,24.9-15.6,38.6-21,13.2-5.2,28.5-8.9,42.5-4.7,13.7,4.2,23.7,15.9,19.3,30.5-2.4,7.8-6.3,15-13.1,19.7-10.7,7.4-25.7,12.6-38.7,9.2s-22.5-17.7-16.1-30.4A32.12,32.12,0,0,1,370.63,80c3.2-2,7-2.4,10.7-3,8-1.1,23.5-2.6,27.1,7.2,1.9,5.2-.3,11.8-4.4,15.3-4.5,4-11.6,4.3-17.3,4.2a48.66,48.66,0,0,1-7.6-.6c-1.4-.4-3.8,1.5-3.8,1.6Z" />
    <path class="cls-2" d="M55.33,102.87c-7.5,1.3-16.3,1.1-23.2-2.1-10-4.6-14.7-21.9-.6-24.2,8-1.4,19.4-.8,26.8,2.9,9.4,4.7,18.4,15.4,16,26.4-1.8,8.4-8.6,15.5-17,17.1-6.7,1.3-13.8.1-20.2-1.8-8.9-2.6-21.2-7.6-26.4-15.9-4.7-7.4-9.1-17.4-6.5-26.2,5-17.5,26.7-19.3,41.6-16.5,38.5,7.3,66.6,38.5,103.6,49.5,12.5,3.7,26.2,6.7,39.2,5.7,7-.5,17.7-3,18.4-11.6.8-10.5-8.9-21.8-15.6-28.9-8.2-8.6-21.4-12.1-33-11.1-9,.8-23.5,3.9-25.4,14.6a19.44,19.44,0,0,0,2.6,13.9c4.1,6.5,11.6,8.5,18.7,10.1,10.8,2.5,23.7,3.6,34.5.4,13.3-4,25.3-12.9,27.4-27.5a50.32,50.32,0,0,0,0-14.5c0-.4-3.8.6-3.7,1.6,2.5,17-4.1,33.1-21.4,38.7-12.8,4.2-31.6,2-43.7-3.3-10.5-4.6-16.5-22.2-4.6-28.8,13.1-7.3,34.2-3.6,44.7,7.3,6.7,7.1,16.3,18.3,15.9,28.7-.7,14.3-28.1,8.2-36.5,6.5a122.73,122.73,0,0,1-32.1-10.8c-11.1-5.7-21.8-12-32.6-18.4-13-7.7-25.7-15.6-40.1-20.4-11.8-3.9-24.9-6.3-37.2-3.2C14,63.87,1.53,71.47.13,83.57c-.9,7.9,3,17.5,7.6,24,5.8,8,17.6,12.9,26.6,15.5,10.2,3,21.4,3.3,31-2,10.6-5.9,16.9-18.9,10.6-30.1-4-7.2-11.3-13.2-19.4-14.9-8.8-1.9-18.8-3-27.4.1s-12.8,11-8,19.6,16.3,9.8,25.1,9.5c2.3-.1,4.7-.3,7-.6.5-.1,3.8-2,2.1-1.8Z" />
</svg>
