<svg id="Layer_1" data-name="Layer 1" xmlns="http://www.w3.org/2000/svg" width="152.24mm" height="115.65mm" viewBox="0 0 431.55 327.84"><defs><style>.cls-1,.cls-2{fill:#9e8555;}.cls-1{fill-rule:evenodd;}</style></defs><title>logo</title><g id="Logo"><path id="FROLOV" class="cls-1" d="M15.37,228.75V206.23H26.58l3.88,9.71h1.83v-21H30.46l-3.88,9.69H15.37v-24.9H35l5.16,14.44h1.73V178H2v1.43l6,1V228.8l-6,1v1.4H21.52v-1.4Zm102.47.12a2.52,2.52,0,0,1-2.49-1.56,21.88,21.88,0,0,1-1.24-4.9l-.75-5.72q-1.71-9.9-12.17-11.31V205q13.75-1.84,13.75-13.26,0-6.9-4.85-10.28T94.47,178H75.94v1.43l6,1V228.8l-6,1v1.4H95.45v-1.4l-6.15-1V205.43h5.18q9.27,0,10.66,9.58l1.3,9a10,10,0,0,0,2.42,6.08c1.26,1.2,3.32,1.79,6.19,1.79a10.4,10.4,0,0,0,7.88-4.09l-1.08-1.19a6.18,6.18,0,0,1-4,2.37ZM107,190.73V192q0,5.82-2.7,8.79a9.66,9.66,0,0,1-7.54,3H89.33v-24h5.18q12.48,0,12.49,11Zm53.22,33.94a23.08,23.08,0,0,0,18,7.86,22.74,22.74,0,0,0,17.94-7.86q7-7.87,7-20.15t-7-20.09a23.15,23.15,0,0,0-17.94-7.82,23.61,23.61,0,0,0-17.93,7.82q-7.07,7.71-7.07,20t7,20.21Zm30.06.53a14.81,14.81,0,0,1-12.07,5.72A15.17,15.17,0,0,1,166,225.2q-4.74-5.7-4.73-15.52V199.43q0-9.59,4.73-15.4a15,15,0,0,1,12.18-5.83A14.7,14.7,0,0,1,190.28,184q4.66,5.83,4.66,15.4v10.23Q194.94,219.5,190.28,225.2ZM236,179.43l6,1V228.8l-6,1v1.4h40.41V215h-1.84l-5.38,14.56H249.41V180.43l6.13-1V178H236Zm73.9,45.24A23,23,0,0,0,328,232.53a22.76,22.76,0,0,0,17.95-7.86q7-7.87,7-20.15t-7-20.09a23.1,23.1,0,0,0-18-7.83A23.65,23.65,0,0,0,310,184.43q-7.06,7.69-7.07,20T309.94,224.67Zm30.05.53a14.77,14.77,0,0,1-12.05,5.72,15.09,15.09,0,0,1-12.17-5.72Q311,219.5,311,209.68V199.43q0-9.59,4.75-15.4a15,15,0,0,1,12.17-5.81A14.67,14.67,0,0,1,340,184.05q4.65,5.82,4.65,15.4v10.23q0,9.82-4.63,15.52Zm60.54,7.33,19.08-50.21,4.74-2.9V178H410.16v1.43l7.64,3L403.48,220l-14.66-39.76,6.36-.85V178h-19.5v1.43l5.28,1L400,232.58Z"/><path id="SAVOVA" class="cls-1" d="M34.94,273.33a27.65,27.65,0,0,0-11.57-2.18,14.55,14.55,0,0,0-11,4.37,16,16,0,0,0-4.2,11.56,13.65,13.65,0,0,0,3,8.78,16.11,16.11,0,0,0,8.79,5.3L31.08,304a18,18,0,0,1,8.13,3.76,8.53,8.53,0,0,1,2.46,6.49,10.59,10.59,0,0,1-3.88,8.83,16.29,16.29,0,0,1-10.42,3.06,20.63,20.63,0,0,1-12.1-3.92L9.54,309.77H8.11V327H9.54l5.67-3a24.32,24.32,0,0,0,13,3.71,16.5,16.5,0,0,0,11.73-4.3,15.14,15.14,0,0,0,4.65-11.68q0-7.38-2.84-11a15.25,15.25,0,0,0-8.73-5L20.9,292.48a17.77,17.77,0,0,1-7-3.26,8,8,0,0,1-2.4-6.33,9.23,9.23,0,0,1,3.38-7.2,13.71,13.71,0,0,1,9.28-3,25,25,0,0,1,10.92,2.41l4.78,9.82h1.43V271.15H39.86Zm46,47.44,5.47-14.07h17.77L110,322.62l-5.45.88v1.41h19.75V323.5l-6.22-1-18.4-52.79h-1L79.11,320.77l-6.55,2.73v1.41H86.94V323.5Zm22.81-15.49H86.94l8.73-23.69Zm70,22.49,19.32-50.83,4.8-2.95v-1.43H183.5V274l7.75,3.05-14.51,38.08-14.8-40.26,6.43-.87v-1.43H148.59V274l5.35,1,19.3,52.8Zm61.2-9.4a23.36,23.36,0,0,0,18.27,8,23,23,0,0,0,18.17-8q7.11-8,7.09-20.4t-7.14-20.36a23.44,23.44,0,0,0-18.17-7.9,23.92,23.92,0,0,0-18.17,7.9q-7,7.81-7.06,20.3T235,318.37Zm30.44.54a15,15,0,0,1-12.22,5.79,15.29,15.29,0,0,1-12.23-5.79q-4.8-5.79-4.81-15.71V292.83q0-9.69,4.81-15.59a15.16,15.16,0,0,1,12.32-5.9,14.87,14.87,0,0,1,12.22,5.9q4.69,5.88,4.71,15.59V303.2q0,9.93-4.71,15.71Zm64.08,8.86,19.32-50.83,4.79-2.95v-1.43H339.23V274L347,277l-14.51,38.08-14.84-40.26,6.43-.87v-1.43H304.3V274l5.35,1,19.29,52.78Zm52.69-4.11,5.45-14.08H405.4l5.78,15.93-5.45.88v1.41h19.75v-1.37l-6.22-1-18.44-52.82h-1l-19.48,51.05-6.55,2.77v1.41h14.4v-1.41ZM405,308.17H388.16l8.78-23.69Z"/></g><path class="cls-2" d="M214.71,1.71l22,21,3.57-1.65A24.33,24.33,0,0,0,226.51,23c-6.52,2.88-13.38,10.45-10.92,18.12,2.32,7.2,11.46,10.77,18,12.73s12.2,2.45,18.8.71c5.09-1.34,15.46-4.45,16.37-10.77.68-4.67-5.2-8.53-8.55-10.61A20.08,20.08,0,0,0,247.32,30c-11.78,1.23-22.9,9.89-28,20.36-4.68,9.6-3.21,20.16,2.05,29.21C225.9,87.35,233.6,91.7,242,94.28A70.47,70.47,0,0,0,269,97c5.86-.56,12.75-1.9,17.42-5.79,4.35-3.61,5.28-10.61.9-14.63-6.73-6.16-19.26-3.74-26.88-.74q-20,7.86-23.09,29.24a37.85,37.85,0,0,0,10.85,31.73c7,6.9,16.53,9,26.08,8.34,13.15-.91,27.29-5.58,37.55-14C327.55,118.31,326,98,316.53,81.55c-8.87-15.35-24.75-22.69-42.14-21.93a70,70,0,0,0-16,2.59c-1.14.32-2.26.73-3.39,1.06,1.61-.47-.82.14-1.58.34-14.69,4-25.78,15.72-31,29.74-5,13.56-7,33.55,10.28,38.49,9,2.56,18.86-.93,27.62-2.72,19.49-4,39.48-9.46,57.45-18.12,10.83-5.23,21.52-10.73,32.4-15.84,11.46-5.39,31.14-12.82,42.44-3.83,12.2,9.71,9.37,30.36-.87,40.49-8.5,8.42-20.38,4.66-29.47-.75-.81-.48-3.82,1.52-3.46,1.74C371,140,385.81,141.13,396,130c6.94-7.6,10.09-18.86,7.15-28.81-8-27.13-42.36-12.24-59.86-3.69C332.59,102.7,322,108.62,311,113a301.29,301.29,0,0,1-57,16.08c-7.47,1.39-12.7,3.14-19.93.3-16-6.3-12.46-26.78-7.2-39.41,5-11.94,13.89-21.67,26.48-25.2,7.49-2.11,14.82-3.7,22.69-3.43,17.42.59,31.67,10.26,39.06,26s7.55,33.69-7,45.07c-11.12,8.69-28.94,13.43-42.78,10.16-20.67-4.88-28.82-29.88-21.71-48.17,1.59-4.09,3.49-8.06,6.47-10.87,7.65-7.21,20.34-11.63,30.5-7.31,5.89,2.5,8.23,10.07,3.58,15-4.84,5.18-15.77,4.54-22.2,4.18-17.67-1-35.51-7.76-40.73-26.24-3.71-13.12,3.3-28.13,14.72-34.43,9.42-5.2,22.08-3.07,28.14,6.63,5.33,8.51-11,12.76-16.89,12.66-10.73-.19-33.13-7.77-27.35-22.08,2.85-7.06,9.59-10.48,17-9.17.51.09,4-1.28,3.57-1.65l-22-21c-.75-.72-3.83,1.42-3.68,1.56Z"/><path class="cls-2" d="M214.76,1.43l-22,21c-.45.43.21.45.51.39a18.77,18.77,0,0,1,15.93,4.62c6.28,6.15,6.57,14.82-.62,20.11a36.51,36.51,0,0,1-20.24,6.54c-5.87-.06-18.4-3-20.28-9.62-1.75-6.12,8.53-11.9,13.2-12.62s9.07.9,13.16,2.84a32.2,32.2,0,0,1,10.21,7.93C216.69,56.2,215.18,78.81,199,88.77c-7.93,4.87-17.94,6.56-27.12,6.8-6.66.17-14.52-.18-20.41-3.68-5.1-3-7.37-11.27-1.85-15.26,4.78-3.45,13.37-1.86,18.58-.27A37.82,37.82,0,0,1,180.58,83c10.63,8.48,14.26,25.81,10,38.22-3.56,10.33-11,20.12-22.31,21.95-7.53,1.22-15.41,0-22.71-2-12.75-3.55-26.29-10.85-31.08-24-6.17-16.9,3.85-39.49,18.11-49.32C144,60,159.2,60.16,172.11,63.46c5.26,1.34,10.64,2.85,15.33,5.61a44.81,44.81,0,0,1,16.92,18.55c4.32,8.56,7.66,19.56,5.92,29.23-1.56,8.63-8.91,14.81-17.12,14.26-5.21-.36-10.58-1.82-15.69-2.82-9.29-1.86-18.53-3.86-27.62-6.53a267.3,267.3,0,0,1-41-16.14c-8.43-4.12-16.78-8.52-25.36-12.34-11.4-5.08-25.91-10-38.38-6.43-25.06,7.22-19.09,49.31,6,51.69,8,.76,15.76-2.66,22.44-6.64,2.16-1.28-1.42-.38-2.16.06-10,5.92-21.64,7.07-30.19-1.62a32.88,32.88,0,0,1-6-9C30.45,110.92,31.52,91.11,45,88,54,86,64.35,89.1,72.76,92.1c10.72,3.83,20.82,9.46,31,14.45a259,259,0,0,0,50,19c10.26,2.61,20.68,4.66,31.11,6.47a28.16,28.16,0,0,0,7.92.71c11.34-1.14,20.71-8.34,21.51-20.23,1.3-19-10.56-40.39-28.45-47.67a75.45,75.45,0,0,0-21.06-5c-15.46-1.42-31.7,3.09-42.34,14.88-12.76,14.15-19.6,38.58-5.42,54,10,10.95,26.88,16.37,41.47,16.58,20.27.3,37.69-15.68,37.52-36.53-.11-16.6-9.51-30.28-25.67-34.56-7.71-2-18.71-2.17-24.85,3.94-4.21,4.2-3.33,11.28,1.38,14.7,6.22,4.51,15.75,4.71,23.09,4.41a70.44,70.44,0,0,0,26.11-6c8.39-3.8,14.39-9.44,18-18a29.4,29.4,0,0,0-2.48-28.08c-7.27-11-21-18.89-34.06-13.29-6.08,2.6-18.62,10.69-10.44,17.63,5.31,4.51,14.13,6.9,21,6.08,11.14-1.32,35.39-8.9,28.45-24.41a18.37,18.37,0,0,0-18.92-10.37c-2.15.25-2,.7-.28-.53,2.76-2,5.2-5,7.66-7.31L218.12.43c.55-.53-2.73.32-3.36.92Z"/><path class="cls-2" d="M375.6,104.8c13.3,2.23,39.2-.86,36.93-19.9-1.2-10.05-14-10.74-21.84-10.36-7.36.35-15.52,1.27-21.94,5.15-8.29,5-16.5,13.82-15.57,24.2,1.19,13.25,13.79,21.21,26.08,21.49,11.14.25,22.46-3.8,32.07-9.19,7.34-4.12,12.12-8.6,15.9-16,5.3-10.39,7-22-2.37-30.79-9.91-9.3-23.75-10.86-36.65-9-17.06,2.52-33.23,10.08-47.82,19-8.6,5.26-17.32,10.35-26.08,15.35-10.3,5.86-20.62,11.94-32,15.41-13.18,4-28.75,7.82-42.57,5.44-4.67-.79-9.89-2.7-11.15-7.8-1.39-5.67,2-12,4.85-16.63,6.88-11.41,15.29-20.52,29-22.88,8.94-1.54,21.06-.46,28.42,5.49,3.71,3,4.63,7.65,4.27,12.22-1.43,17.61-23.55,19-37.53,19.11-15.87.09-33.58-7.2-37.83-24.09a46.83,46.83,0,0,1-.64-17.81c.07-.49-3.52.38-3.65,1.28-2,13.3,1.15,26.31,12.21,34.78,9.89,7.58,22.84,8.25,34.76,7.33,10.9-.85,26.63-2.92,33.27-12.89,5.61-8.41,4-19.56-5.33-24-13.14-6.33-29.26-4.16-41.72,2.66-7.45,4.08-12.76,10.75-17.38,17.76s-11.63,20.25-.93,25.5c10,4.9,24,2.08,34.4.06s20.8-4.87,30.38-9.48c10.72-5.16,21-11.24,31.3-17.24,12.68-7.42,24.92-15.62,38.64-21,13.16-5.2,28.55-8.94,42.49-4.71,13.74,4.16,23.73,15.91,19.27,30.49-2.39,7.8-6.35,15-13.11,19.67-10.7,7.41-25.68,12.59-38.68,9.24s-22.5-17.69-16.11-30.45a32.07,32.07,0,0,1,11.55-12.25c3.19-2,7-2.45,10.74-3,8-1.14,23.55-2.63,27.1,7.19,1.88,5.17-.33,11.76-4.37,15.29-4.55,4-11.57,4.33-17.33,4.25a49.33,49.33,0,0,1-7.57-.61c-1.09-.18-3.48,1.73-3.45,1.74Z"/><path class="cls-2" d="M55.61,103.08c-7.48,1.26-16.26,1.09-23.22-2.12-10-4.61-14.71-21.85-.64-24.25,8-1.37,19.42-.8,26.85,2.9C68,84.28,77,95,74.6,106c-1.82,8.37-8.59,15.47-17,17.07-6.7,1.27-13.78.13-20.24-1.8-8.93-2.64-21.22-7.64-26.42-15.88C6.28,98,1.85,88,4.39,79.21,9.39,61.71,31.05,59.89,46,62.7c38.49,7.26,66.56,38.55,103.56,49.49,12.45,3.68,26.16,6.69,39.21,5.68,7-.54,17.71-3,18.35-11.62.78-10.46-8.91-21.79-15.6-28.89-8.16-8.65-21.42-12.1-32.95-11.12-9,.76-23.49,4-25.38,14.65a20.08,20.08,0,0,0,2.56,13.9c4.09,6.52,11.58,8.47,18.66,10.07,10.83,2.46,23.72,3.6,34.49.36,13.31-4,25.32-12.88,27.43-27.51a50.67,50.67,0,0,0,0-14.55c0-.37-3.82.64-3.68,1.56,2.5,17-4.14,33.1-21.38,38.73-12.76,4.17-31.63,2-43.67-3.34-10.49-4.62-16.47-22.2-4.64-28.78,13.15-7.3,34.25-3.58,44.68,7.35,6.74,7.07,16.34,18.28,15.86,28.71-.67,14.29-28.06,8.2-36.53,6.5a121.34,121.34,0,0,1-32.08-10.79c-11.08-5.7-21.84-12-32.56-18.36C89.29,77,76.64,69.17,62.15,64.33,50.32,60.38,37.21,58,24.91,61.16,14,64,1.54,71.56.13,83.71c-.92,7.94,3,17.53,7.63,24,5.77,8,17.56,12.91,26.63,15.53,10.24,3,21.44,3.29,31-2C76,115.38,82.28,102.39,76,91.15,72,83.94,64.7,78,56.61,76.23c-8.77-1.88-18.81-3-27.44.07s-12.81,11-8,19.62,16.31,9.83,25.11,9.54a52.79,52.79,0,0,0,7-.64c.69-.11,4.06-2,2.34-1.7Z"/></svg>
